<svg xmlns="http://www.w3.org/2000/svg" xmlns:xlink="http://www.w3.org/1999/xlink" width="0.222in"
                            height="0.222in">
                            <path fill-rule="evenodd" fill="rgb(255, 255, 255)" d="M15.696,15.696 C15.303,16.090 14.664,16.090 14.271,15.696 L11.180,12.605 C10.013,13.477 8.569,14.000 7.000,14.000 C3.134,14.000 -0.000,10.866 -0.000,7.000 C-0.000,3.134 3.134,0.000 7.000,0.000 C10.866,0.000 14.000,3.134 14.000,7.000 C14.000,8.569 13.477,10.013 12.605,11.180 L15.696,14.271 C16.090,14.665 16.090,15.302 15.696,15.696 ZM7.000,2.000 C4.239,2.000 2.000,4.239 2.000,7.000 C2.000,9.761 4.239,12.000 7.000,12.000 C9.761,12.000 12.000,9.761 12.000,7.000 C12.000,4.239 9.761,2.000 7.000,2.000 Z" />
                        </svg>