<svg width="345.00000000000006" height="370" xmlns="http://www.w3.org/2000/svg">
 <!-- Created with Method Draw - http://github.com/duopixel/Method-Draw/ -->

 <g>
  <title>background</title>
  <rect fill="none" id="canvas_background" height="372" width="347" y="-1" x="-1"/>
 </g>
 <g>
  <title>Layer 1</title>
  <g stroke="null" id="svg_5">
   <path stroke="null" id="svg_4" d="m337.13315,362.524648c-8.405978,9.063193 -22.073712,9.063193 -30.47969,0l-66.114191,-71.102358c-24.961262,20.05864 -55.847348,32.089223 -89.407091,32.089223c-82.690865,0 -149.724794,-72.091488 -149.724794,-161.021193c0,-88.929704 67.033929,-161.021193 149.724794,-161.021193c82.690865,0 149.724794,72.091488 149.724794,161.021193c0,36.09175 -11.186581,69.308122 -29.838012,96.152655l66.114191,71.102358c8.427367,9.063193 8.427367,23.716121 0,32.779314zm-186.000972,-315.049465c-59.055736,0 -106.946281,51.503779 -106.946281,115.015138c0,63.511359 47.890545,115.015138 106.946281,115.015138c59.055736,0 106.946281,-51.503779 106.946281,-115.015138c0,-63.511359 -47.890545,-115.015138 -106.946281,-115.015138z" fill="rgb(255, 255, 255)" fill-rule="evenodd"/>
  </g>
 </g>
</svg>